<svg xmlns="http://www.w3.org/2000/svg" version="1.1" xmlns:xlink="http://www.w3.org/1999/xlink" xmlns:svgjs="http://svgjs.dev/svgjs" width="1000" height="623" viewBox="0 0 1000 623"><g transform="matrix(1,0,0,1,-0.6060606060606233,0.2522267206477409)"><svg viewBox="0 0 396 247" data-background-color="#374151" preserveAspectRatio="xMidYMid meet" height="623" width="1000" xmlns="http://www.w3.org/2000/svg" xmlns:xlink="http://www.w3.org/1999/xlink"><g id="tight-bounds" transform="matrix(1,0,0,1,0.2400000000000091,-0.09999999999999432)"><svg viewBox="0 0 395.52 247.2" height="247.2" width="395.52"><g><svg></svg></g><g><svg viewBox="0 0 395.52 247.2" height="247.2" width="395.52"><g transform="matrix(1,0,0,1,75.54432,100.72282288426048)"><svg viewBox="0 0 244.43135999999998 45.75435423147903" height="45.75435423147903" width="244.43135999999998"><g><svg viewBox="0 0 244.43135999999998 45.75435423147903" height="45.75435423147903" width="244.43135999999998"><g><svg viewBox="0 0 244.43135999999998 45.75435423147903" height="45.75435423147903" width="244.43135999999998"><g><svg viewBox="0 0 244.43135999999998 45.75435423147903" height="45.75435423147903" width="244.43135999999998"><g id="textblocktransform"><svg viewBox="0 0 244.43135999999998 45.75435423147903" height="45.75435423147903" width="244.43135999999998" id="textblock"><g><svg viewBox="0 0 244.43135999999998 45.75435423147903" height="45.75435423147903" width="244.43135999999998"><g transform="matrix(1,0,0,1,0,0)"><svg width="244.43135999999998" viewBox="3.6 -35 189.64000000000001 35.5" height="45.75435423147903" data-palette-color="#ffd300"><path d="M17.85 0.5L17.85 0.5Q13.5 0.5 10.3-0.98 7.1-2.45 5.35-5.53 3.6-8.6 3.6-13.4L3.6-13.4 3.6-33.75Q3.6-34.3 3.95-34.65 4.3-35 4.8-35L4.8-35 9.35-35Q9.9-35 10.23-34.65 10.55-34.3 10.55-33.75L10.55-33.75 10.55-13.4Q10.55-9.3 12.5-7.33 14.45-5.35 17.85-5.35L17.85-5.35Q21.25-5.35 23.18-7.33 25.1-9.3 25.1-13.4L25.1-13.4 25.1-33.75Q25.1-34.3 25.45-34.65 25.8-35 26.35-35L26.35-35 30.85-35Q31.4-35 31.73-34.65 32.05-34.3 32.05-33.75L32.05-33.75 32.05-13.4Q32.05-8.6 30.33-5.53 28.6-2.45 25.43-0.98 22.25 0.5 17.85 0.5ZM44.95 0L40.75 0Q40.25 0 39.9-0.35 39.55-0.7 39.55-1.2L39.55-1.2 39.55-33.75Q39.55-34.3 39.9-34.65 40.25-35 40.75-35L40.75-35 44.6-35Q45.3-35 45.62-34.68 45.95-34.35 46.05-34.2L46.05-34.2 60.45-11.8 60.45-33.75Q60.45-34.3 60.77-34.65 61.1-35 61.65-35L61.65-35 65.85-35Q66.4-35 66.75-34.65 67.1-34.3 67.1-33.75L67.1-33.75 67.1-1.25Q67.1-0.7 66.75-0.35 66.4 0 65.9 0L65.9 0 62 0Q61.3 0 61-0.35 60.7-0.7 60.55-0.8L60.55-0.8 46.2-22.7 46.2-1.2Q46.2-0.7 45.85-0.35 45.5 0 44.95 0L44.95 0ZM80.8 0L76.09 0Q75.59 0 75.25-0.35 74.9-0.7 74.9-1.2L74.9-1.2 74.9-33.8Q74.9-34.3 75.25-34.65 75.59-35 76.09-35L76.09-35 80.8-35Q81.34-35 81.67-34.65 82-34.3 82-33.8L82-33.8 82-1.2Q82-0.7 81.67-0.35 81.34 0 80.8 0L80.8 0ZM103.34 0L98.74 0Q98.24 0 97.89-0.35 97.54-0.7 97.54-1.2L97.54-1.2 97.54-28.85 88.29-28.85Q87.79-28.85 87.44-29.2 87.09-29.55 87.09-30.05L87.09-30.05 87.09-33.75Q87.09-34.3 87.44-34.65 87.79-35 88.29-35L88.29-35 113.79-35Q114.34-35 114.69-34.65 115.04-34.3 115.04-33.75L115.04-33.75 115.04-30.05Q115.04-29.55 114.69-29.2 114.34-28.85 113.79-28.85L113.79-28.85 104.59-28.85 104.59-1.2Q104.59-0.7 104.24-0.35 103.89 0 103.34 0L103.34 0ZM125.99 0L121.29 0Q120.79 0 120.44-0.35 120.09-0.7 120.09-1.2L120.09-1.2 120.09-33.8Q120.09-34.3 120.44-34.65 120.79-35 121.29-35L121.29-35 125.99-35Q126.54-35 126.87-34.65 127.19-34.3 127.19-33.8L127.19-33.8 127.19-1.2Q127.19-0.7 126.87-0.35 126.54 0 125.99 0L125.99 0ZM140.64 0L136.24 0Q135.74 0 135.39-0.35 135.04-0.7 135.04-1.2L135.04-1.2 135.04-33.75Q135.04-34.3 135.39-34.65 135.74-35 136.24-35L136.24-35 157.94-35Q158.49-35 158.84-34.65 159.19-34.3 159.19-33.75L159.19-33.75 159.19-30.25Q159.19-29.7 158.84-29.38 158.49-29.05 157.94-29.05L157.94-29.05 141.89-29.05 141.89-19.55 156.94-19.55Q157.49-19.55 157.84-19.2 158.19-18.85 158.19-18.3L158.19-18.3 158.19-14.8Q158.19-14.3 157.84-13.95 157.49-13.6 156.94-13.6L156.94-13.6 141.89-13.6 141.89-1.2Q141.89-0.7 141.54-0.35 141.19 0 140.64 0L140.64 0ZM180.04 0L175.49 0Q174.99 0 174.64-0.35 174.29-0.7 174.29-1.2L174.29-1.2 174.29-12.5 162.49-33.4Q162.44-33.5 162.39-33.65 162.34-33.8 162.34-33.95L162.34-33.95Q162.34-34.4 162.64-34.7 162.94-35 163.34-35L163.34-35 167.79-35Q168.39-35 168.76-34.7 169.14-34.4 169.29-34.05L169.29-34.05 177.79-19.5 186.24-34.05Q186.44-34.4 186.81-34.7 187.19-35 187.79-35L187.79-35 192.19-35Q192.64-35 192.94-34.7 193.24-34.4 193.24-33.95L193.24-33.95Q193.24-33.8 193.21-33.65 193.19-33.5 193.09-33.4L193.09-33.4 181.29-12.5 181.29-1.2Q181.29-0.7 180.94-0.35 180.59 0 180.04 0L180.04 0Z" opacity="1" transform="matrix(1,0,0,1,0,0)" fill="#ffd300" class="undefined-text-0" data-fill-palette-color="primary" id="text-0"></path></svg></g></svg></g></svg></g></svg></g></svg></g></svg></g></svg></g><path d="M187.968 94.723L187.968 33.431 7.629 33.431 7.629 213.769 187.968 213.769 187.968 152.477 183.842 152.477 183.842 209.643 11.756 209.643 11.756 37.557 183.842 37.557 183.842 94.723Z" fill="#ffd300" stroke="transparent" data-fill-palette-color="primary"></path></svg></g><defs></defs></svg><rect width="395.52" height="247.2" fill="none" stroke="none" visibility="hidden"></rect></g></svg></g></svg>